<?xml version="1.0" encoding="UTF-8"?>
<!DOCTYPE svg PUBLIC "-//W3C//DTD SVG 1.1//EN" "http://www.w3.org/Graphics/SVG/1.1/DTD/svg11.dtd">
<svg xmlns="http://www.w3.org/2000/svg" version="1.1" width="190px" height="190px" style="shape-rendering:geometricPrecision; text-rendering:geometricPrecision; image-rendering:optimizeQuality; fill-rule:evenodd; clip-rule:evenodd" xmlns:xlink="http://www.w3.org/1999/xlink">
<g><path style="opacity:1" fill="#ab9261" d="M 130.5,17.5 C 130.5,17.8333 130.5,18.1667 130.5,18.5C 122.668,16.353 114.668,15.0197 106.5,14.5C 105.167,14.5 103.833,14.5 102.5,14.5C 88.752,12.6461 75.0854,13.6461 61.5,17.5C 60.8333,17.5 60.1667,17.5 59.5,17.5C 63.0406,15.7648 66.7073,14.4314 70.5,13.5C 90.7817,11.1839 110.782,12.5173 130.5,17.5 Z"/></g>
<g><path style="opacity:0.976" fill="#5b5859" d="M 130.5,17.5 C 110.782,12.5173 90.7817,11.1839 70.5,13.5C 71.6085,12.71 72.9419,12.21 74.5,12C 93.0938,10.3295 111.427,11.6628 129.5,16C 130.056,16.3826 130.389,16.8826 130.5,17.5 Z"/></g>
<g><path style="opacity:0.976" fill="#5b5854" d="M 70.5,13.5 C 66.7073,14.4314 63.0406,15.7648 59.5,17.5C 58.8333,17.5 58.1667,17.5 57.5,17.5C 56.8333,17.5 56.1667,17.5 55.5,17.5C 60.0892,14.9758 65.0892,13.6425 70.5,13.5 Z"/></g>
<g><path style="opacity:1" fill="#d9a63a" d="M 102.5,14.5 C 90.958,13.8095 79.6247,14.9762 68.5,18C 84.8333,18.6667 101.167,18.6667 117.5,18C 113.628,17.0965 109.961,15.9298 106.5,14.5C 114.668,15.0197 122.668,16.353 130.5,18.5C 130.833,19.1667 131.167,19.8333 131.5,20.5C 127.555,19.3437 123.555,18.8437 119.5,19C 120.551,20.3848 121.884,21.3848 123.5,22C 128.813,23.2948 133.813,25.1281 138.5,27.5C 138.863,28.1835 139.196,28.8501 139.5,29.5C 138.833,29.5 138.167,29.5 137.5,29.5C 136.833,29.5 136.167,29.5 135.5,29.5C 133.526,28.0844 131.36,26.7511 129,25.5C 127.234,24.7665 125.401,24.4332 123.5,24.5C 119.915,22.2661 115.915,20.7661 111.5,20C 98.8333,19.3333 86.1667,19.3333 73.5,20C 72.5842,20.2784 71.9175,20.7784 71.5,21.5C 70.1667,21.5 68.8333,21.5 67.5,21.5C 67.5,20.5 67.5,19.5 67.5,18.5C 64.8333,18.8333 62.1667,19.1667 59.5,19.5C 60.1667,18.8333 60.8333,18.1667 61.5,17.5C 75.0854,13.6461 88.752,12.6461 102.5,14.5 Z"/></g>
<g><path style="opacity:1" fill="#e1a625" d="M 102.5,14.5 C 103.833,14.5 105.167,14.5 106.5,14.5C 109.961,15.9298 113.628,17.0965 117.5,18C 101.167,18.6667 84.8333,18.6667 68.5,18C 79.6247,14.9762 90.958,13.8095 102.5,14.5 Z"/></g>
<g><path style="opacity:0.976" fill="#525b55" d="M 130.5,18.5 C 130.5,18.1667 130.5,17.8333 130.5,17.5C 134.327,17.7516 137.66,19.0849 140.5,21.5C 137.177,20.5075 133.844,19.5075 130.5,18.5 Z"/></g>
<g><path style="opacity:1" fill="#79705a" d="M 55.5,17.5 C 56.1667,17.5 56.8333,17.5 57.5,17.5C 54.4822,19.3999 51.1488,20.7333 47.5,21.5C 49.7886,19.6127 52.4553,18.2794 55.5,17.5 Z"/></g>
<g><path style="opacity:0.992" fill="#b39a5c" d="M 130.5,18.5 C 133.844,19.5075 137.177,20.5075 140.5,21.5C 141.5,22.8333 142.5,24.1667 143.5,25.5C 139.5,23.8333 135.5,22.1667 131.5,20.5C 131.167,19.8333 130.833,19.1667 130.5,18.5 Z"/></g>
<g><path style="opacity:1" fill="#625c55" d="M 47.5,21.5 C 46.4863,22.6737 45.153,23.3404 43.5,23.5C 44.287,21.8958 45.6203,21.2291 47.5,21.5 Z"/></g>
<g><path style="opacity:1" fill="#c5a253" d="M 57.5,17.5 C 58.1667,17.5 58.8333,17.5 59.5,17.5C 60.1667,17.5 60.8333,17.5 61.5,17.5C 60.8333,18.1667 60.1667,18.8333 59.5,19.5C 53.737,21.2143 48.0703,23.2143 42.5,25.5C 42.8333,24.8333 43.1667,24.1667 43.5,23.5C 45.153,23.3404 46.4863,22.6737 47.5,21.5C 51.1488,20.7333 54.4822,19.3999 57.5,17.5 Z"/></g>
<g><path style="opacity:1" fill="#625f54" d="M 43.5,23.5 C 43.1667,24.1667 42.8333,24.8333 42.5,25.5C 33.0556,30.944 26.0556,38.6106 21.5,48.5C 21.1667,48.5 20.8333,48.5 20.5,48.5C 25.0507,37.2833 32.7174,28.95 43.5,23.5 Z"/></g>
<g><path style="opacity:1" fill="#bb9e5c" d="M 143.5,25.5 C 146.038,26.0427 148.372,27.0427 150.5,28.5C 150.5,29.1667 150.5,29.8333 150.5,30.5C 147.883,29.2141 145.55,27.5475 143.5,25.5 Z"/></g>
<g><path style="opacity:0.09" fill="#545752" d="M 140.5,21.5 C 144.542,22.8514 147.875,25.1848 150.5,28.5C 148.372,27.0427 146.038,26.0427 143.5,25.5C 142.5,24.1667 141.5,22.8333 140.5,21.5 Z"/></g>
<g><path style="opacity:0.012" fill="#6b6660" d="M 150.5,28.5 C 153.189,29.1894 154.856,30.856 155.5,33.5C 154.5,32.8333 153.5,32.1667 152.5,31.5C 151.833,31.1667 151.167,30.8333 150.5,30.5C 150.5,29.8333 150.5,29.1667 150.5,28.5 Z"/></g>
<g><path style="opacity:0.984" fill="#968156" d="M 152.5,31.5 C 153.5,32.1667 154.5,32.8333 155.5,33.5C 156.833,33.5 157.5,34.1667 157.5,35.5C 157.167,35.5 156.833,35.5 156.5,35.5C 154.167,35.1667 152.833,33.8333 152.5,31.5 Z"/></g>
<g><path style="opacity:0.969" fill="#5b5850" d="M 157.5,35.5 C 159.587,36.5846 160.92,38.2512 161.5,40.5C 159.413,39.4154 158.08,37.7488 157.5,35.5 Z"/></g>
<g><path style="opacity:0.992" fill="#bd9f55" d="M 156.5,35.5 C 156.833,35.5 157.167,35.5 157.5,35.5C 158.08,37.7488 159.413,39.4154 161.5,40.5C 161.5,41.1667 161.5,41.8333 161.5,42.5C 158.402,41.1365 156.735,38.8032 156.5,35.5 Z"/></g>
<g><path style="opacity:1" fill="#c4a259" d="M 42.5,25.5 C 39.0289,29.4966 35.1955,33.1633 31,36.5C 27.9412,41.0369 24.7745,45.3703 21.5,49.5C 21.5,49.1667 21.5,48.8333 21.5,48.5C 26.0556,38.6106 33.0556,30.944 42.5,25.5 Z"/></g>
<g><path style="opacity:0.945" fill="#5b5757" d="M 161.5,40.5 C 162.906,40.9731 163.573,41.9731 163.5,43.5C 162.833,43.1667 162.167,42.8333 161.5,42.5C 161.5,41.8333 161.5,41.1667 161.5,40.5 Z"/></g>
<g><path style="opacity:0.337" fill="#464242" d="M 163.5,43.5 C 165.104,44.287 165.771,45.6203 165.5,47.5C 164.326,46.4863 163.66,45.153 163.5,43.5 Z"/></g>
<g><path style="opacity:0.992" fill="#bf9e5b" d="M 161.5,42.5 C 162.167,42.8333 162.833,43.1667 163.5,43.5C 163.66,45.153 164.326,46.4863 165.5,47.5C 165.755,49.9674 166.755,51.9674 168.5,53.5C 168.5,54.8333 168.5,56.1667 168.5,57.5C 165.369,52.9033 163.036,47.9033 161.5,42.5 Z"/></g>
<g><path style="opacity:0.667" fill="#585151" d="M 165.5,47.5 C 167.245,49.0326 168.245,51.0326 168.5,53.5C 166.755,51.9674 165.755,49.9674 165.5,47.5 Z"/></g>
<g><path style="opacity:1" fill="#7c705a" d="M 20.5,48.5 C 20.8333,48.5 21.1667,48.5 21.5,48.5C 21.5,48.8333 21.5,49.1667 21.5,49.5C 18.9469,54.6097 16.9469,59.943 15.5,65.5C 14.8333,66.8333 14.1667,68.1667 13.5,69.5C 14.4605,61.9698 16.7938,54.9698 20.5,48.5 Z"/></g>
<g><path style="opacity:0.992" fill="#6a5e53" d="M 168.5,53.5 C 170.277,56.5046 171.277,59.8379 171.5,63.5C 170.5,61.5 169.5,59.5 168.5,57.5C 168.5,56.1667 168.5,54.8333 168.5,53.5 Z"/></g>
<g><path style="opacity:0.992" fill="#bb9d5c" d="M 15.5,65.5 C 12.363,86.993 13.0297,108.326 17.5,129.5C 16.1667,126.167 14.8333,122.833 13.5,119.5C 13.5,119.167 13.5,118.833 13.5,118.5C 13.3867,113.482 13.0534,108.482 12.5,103.5C 12.3808,92.4816 12.7141,81.4816 13.5,70.5C 13.5,70.1667 13.5,69.8333 13.5,69.5C 14.1667,68.1667 14.8333,66.8333 15.5,65.5 Z"/></g>
<g><path style="opacity:1" fill="#c19b52" d="M 168.5,57.5 C 169.5,59.5 170.5,61.5 171.5,63.5C 172.434,64.5676 172.768,65.901 172.5,67.5C 172.5,70.1667 172.5,72.8333 172.5,75.5C 170.742,69.843 169.409,63.843 168.5,57.5 Z"/></g>
<g><path style="opacity:0.922" fill="#706757" d="M 172.5,67.5 C 173.972,71.9192 174.638,76.5859 174.5,81.5C 173.833,79.5 173.167,77.5 172.5,75.5C 172.5,72.8333 172.5,70.1667 172.5,67.5 Z"/></g>
<g><path style="opacity:0.992" fill="#6c6458" d="M 13.5,70.5 C 12.7141,81.4816 12.3808,92.4816 12.5,103.5C 12.1667,103.5 11.8333,103.5 11.5,103.5C 11.3335,93.8276 11.5002,84.1609 12,74.5C 12.21,72.9419 12.71,71.6085 13.5,70.5 Z"/></g>
<g><path style="opacity:1" fill="#c7a456" d="M 172.5,75.5 C 173.167,77.5 173.833,79.5 174.5,81.5C 175.682,98.3731 173.682,114.706 168.5,130.5C 169.906,121.583 171.073,112.583 172,103.5C 172.5,94.1726 172.666,84.8393 172.5,75.5 Z"/></g>
<g><path style="opacity:0.914" fill="#58575b" d="M 11.5,103.5 C 11.8333,103.5 12.1667,103.5 12.5,103.5C 13.0534,108.482 13.3867,113.482 13.5,118.5C 11.7623,113.783 11.0956,108.783 11.5,103.5 Z"/></g>
<g><path style="opacity:0.969" fill="#5d5a55" d="M 174.5,81.5 C 176.953,100.553 174.786,119.22 168,137.5C 167.148,138.571 166.315,139.571 165.5,140.5C 166.5,137.167 167.5,133.833 168.5,130.5C 173.682,114.706 175.682,98.3731 174.5,81.5 Z"/></g>
<g><path style="opacity:0.412" fill="#4e4e53" d="M 13.5,119.5 C 14.8333,122.833 16.1667,126.167 17.5,129.5C 18.1667,131.5 18.8333,133.5 19.5,135.5C 19.5,136.167 19.5,136.833 19.5,137.5C 16.2816,131.982 14.2816,125.982 13.5,119.5 Z"/></g>
<g><path style="opacity:1" fill="#c6a050" d="M 168.5,130.5 C 167.5,133.833 166.5,137.167 165.5,140.5C 163.896,141.287 163.229,142.62 163.5,144.5C 163.5,144.833 163.5,145.167 163.5,145.5C 160.238,148.421 156.905,151.421 153.5,154.5C 156.133,150.698 158.966,147.031 162,143.5C 162.373,141.302 162.873,139.135 163.5,137C 163.095,136.055 162.428,135.388 161.5,135C 164.793,134.855 167.126,133.355 168.5,130.5 Z"/></g>
<g><path style="opacity:0.984" fill="#5c5955" d="M 19.5,137.5 C 22.4113,140.99 25.078,144.656 27.5,148.5C 28.8333,150.167 30.1667,151.833 31.5,153.5C 32.8333,155.167 34.1667,156.833 35.5,158.5C 27.9207,153.249 22.5873,146.249 19.5,137.5 Z"/></g>
<g><path style="opacity:1" fill="#c19f5b" d="M 19.5,135.5 C 23.4168,138.988 26.0834,143.321 27.5,148.5C 25.078,144.656 22.4113,140.99 19.5,137.5C 19.5,136.833 19.5,136.167 19.5,135.5 Z"/></g>
<g><path style="opacity:0.627" fill="#565559" d="M 165.5,140.5 C 165.34,142.153 164.674,143.486 163.5,144.5C 163.229,142.62 163.896,141.287 165.5,140.5 Z"/></g>
<g><path style="opacity:0.976" fill="#b09761" d="M 31.5,153.5 C 34.0892,154.419 36.0892,156.086 37.5,158.5C 36.8333,158.5 36.1667,158.5 35.5,158.5C 34.1667,156.833 32.8333,155.167 31.5,153.5 Z"/></g>
<g><path style="opacity:0.094" fill="#5a5a55" d="M 163.5,145.5 C 159.812,151.188 155.145,155.855 149.5,159.5C 150.833,157.833 152.167,156.167 153.5,154.5C 156.905,151.421 160.238,148.421 163.5,145.5 Z"/></g>
<g><path style="opacity:1" fill="#c2a25a" d="M 153.5,154.5 C 152.167,156.167 150.833,157.833 149.5,159.5C 147.517,160.471 145.517,161.471 143.5,162.5C 146.024,158.894 149.357,156.228 153.5,154.5 Z"/></g>
<g><path style="opacity:1" fill="#b2995f" d="M 37.5,158.5 C 39.7488,159.08 41.4154,160.413 42.5,162.5C 40.2512,161.92 38.5846,160.587 37.5,158.5 Z"/></g>
<g><path style="opacity:1" fill="#c0a05b" d="M 143.5,162.5 C 141.151,164.341 138.485,165.674 135.5,166.5C 137.579,164.127 140.246,162.794 143.5,162.5 Z"/></g>
<g><path style="opacity:0.984" fill="#b89a54" d="M 42.5,162.5 C 44.698,162.12 46.3646,162.787 47.5,164.5C 45.302,164.88 43.6354,164.213 42.5,162.5 Z"/></g>
<g><path style="opacity:0.871" fill="#666156" d="M 149.5,159.5 C 145.149,164.171 139.816,167.171 133.5,168.5C 133.5,168.167 133.5,167.833 133.5,167.5C 134.492,167.672 135.158,167.338 135.5,166.5C 138.485,165.674 141.151,164.341 143.5,162.5C 145.517,161.471 147.517,160.471 149.5,159.5 Z"/></g>
<g><path style="opacity:0.992" fill="#ba9a5a" d="M 48.5,165.5 C 58.1932,168.432 67.8599,171.098 77.5,173.5C 75.8333,173.5 74.1667,173.5 72.5,173.5C 69.5448,172.841 66.5448,172.508 63.5,172.5C 61.8984,170.926 59.8984,170.259 57.5,170.5C 57.1667,170.5 56.8333,170.5 56.5,170.5C 53.8707,168.837 51.204,167.171 48.5,165.5 Z"/></g>
<g><path style="opacity:1" fill="#575556" d="M 35.5,158.5 C 36.1667,158.5 36.8333,158.5 37.5,158.5C 38.5846,160.587 40.2512,161.92 42.5,162.5C 43.6354,164.213 45.302,164.88 47.5,164.5C 47.5,165.167 47.8333,165.5 48.5,165.5C 51.204,167.171 53.8707,168.837 56.5,170.5C 48.0999,168.804 41.0999,164.804 35.5,158.5 Z"/></g>
<g><path style="opacity:0.996" fill="#dea62e" d="M 67.5,21.5 C 65.7857,22.7384 63.7857,23.405 61.5,23.5C 59.4727,23.3379 57.4727,23.5045 55.5,24C 52.5095,25.9652 49.8428,28.1318 47.5,30.5C 47.1667,30.5 46.8333,30.5 46.5,30.5C 40.6146,33.3805 35.9479,37.7138 32.5,43.5C 31.4168,43.5394 30.4168,43.8728 29.5,44.5C 28.6938,48.4369 26.8605,51.7703 24,54.5C 22.584,59.4119 21.7507,64.4119 21.5,69.5C 20.8333,71.5 20.1667,73.5 19.5,75.5C 18.3415,85.6584 18.1748,95.9917 19,106.5C 19.1981,108.382 19.6981,110.048 20.5,111.5C 19.9788,117.416 21.3122,122.749 24.5,127.5C 25.3467,133.53 28.0134,138.53 32.5,142.5C 32.427,144.027 33.0937,145.027 34.5,145.5C 36.1667,149.167 38.8333,151.833 42.5,153.5C 43.922,154.925 45.5887,155.925 47.5,156.5C 48.0312,158.624 49.3645,160.124 51.5,161C 54.1168,161.822 56.7835,162.322 59.5,162.5C 61.7554,164.38 64.4221,165.38 67.5,165.5C 67.8333,165.5 68.1667,165.5 68.5,165.5C 70.3052,167.197 72.6385,168.03 75.5,168C 84.6762,168.824 93.6762,168.657 102.5,167.5C 102.833,167.5 103.167,167.5 103.5,167.5C 109.245,167.946 114.579,166.946 119.5,164.5C 123.248,163.793 126.914,162.793 130.5,161.5C 134.857,160.997 138.191,158.997 140.5,155.5C 147.774,152.559 153.107,147.559 156.5,140.5C 156.5,139.833 156.5,139.167 156.5,138.5C 157.906,138.027 158.573,137.027 158.5,135.5C 161.815,131.514 163.482,126.848 163.5,121.5C 163.5,121.167 163.5,120.833 163.5,120.5C 164.117,120.389 164.617,120.056 165,119.5C 165.395,116.793 165.895,114.127 166.5,111.5C 167.317,109.031 167.817,106.365 168,103.5C 168.667,95.1667 168.667,86.8333 168,78.5C 166.213,72.634 165.213,66.634 165,60.5C 163.572,57.6105 162.072,54.9438 160.5,52.5C 158.763,48.3264 156.097,44.9931 152.5,42.5C 151.167,39.1667 148.833,36.8333 145.5,35.5C 145.027,34.0937 144.027,33.427 142.5,33.5C 141.5,32.1667 140.5,30.8333 139.5,29.5C 139.196,28.8501 138.863,28.1835 138.5,27.5C 133.813,25.1281 128.813,23.2948 123.5,22C 121.884,21.3848 120.551,20.3848 119.5,19C 123.555,18.8437 127.555,19.3437 131.5,20.5C 135.5,22.1667 139.5,23.8333 143.5,25.5C 145.55,27.5475 147.883,29.2141 150.5,30.5C 151.167,30.8333 151.833,31.1667 152.5,31.5C 152.833,33.8333 154.167,35.1667 156.5,35.5C 156.735,38.8032 158.402,41.1365 161.5,42.5C 163.036,47.9033 165.369,52.9033 168.5,57.5C 169.409,63.843 170.742,69.843 172.5,75.5C 172.666,84.8393 172.5,94.1726 172,103.5C 171.073,112.583 169.906,121.583 168.5,130.5C 167.126,133.355 164.793,134.855 161.5,135C 162.428,135.388 163.095,136.055 163.5,137C 162.873,139.135 162.373,141.302 162,143.5C 158.966,147.031 156.133,150.698 153.5,154.5C 149.357,156.228 146.024,158.894 143.5,162.5C 140.246,162.794 137.579,164.127 135.5,166.5C 135.158,167.338 134.492,167.672 133.5,167.5C 131.447,167.402 129.78,168.069 128.5,169.5C 127.833,169.5 127.167,169.5 126.5,169.5C 118.903,170.811 111.237,171.978 103.5,173C 95.8406,173.5 88.1739,173.666 80.5,173.5C 79.5,173.5 78.5,173.5 77.5,173.5C 67.8599,171.098 58.1932,168.432 48.5,165.5C 47.8333,165.5 47.5,165.167 47.5,164.5C 46.3646,162.787 44.698,162.12 42.5,162.5C 41.4154,160.413 39.7488,159.08 37.5,158.5C 36.0892,156.086 34.0892,154.419 31.5,153.5C 30.1667,151.833 28.8333,150.167 27.5,148.5C 26.0834,143.321 23.4168,138.988 19.5,135.5C 18.8333,133.5 18.1667,131.5 17.5,129.5C 13.0297,108.326 12.363,86.993 15.5,65.5C 16.9469,59.943 18.9469,54.6097 21.5,49.5C 24.7745,45.3703 27.9412,41.0369 31,36.5C 35.1955,33.1633 39.0289,29.4966 42.5,25.5C 48.0703,23.2143 53.737,21.2143 59.5,19.5C 62.1667,19.1667 64.8333,18.8333 67.5,18.5C 67.5,19.5 67.5,20.5 67.5,21.5 Z"/></g>
<g><path style="opacity:1" fill="#d2a646" d="M 68.5,165.5 C 79.7374,167.292 91.0707,167.958 102.5,167.5C 93.6762,168.657 84.6762,168.824 75.5,168C 72.6385,168.03 70.3052,167.197 68.5,165.5 Z"/></g>
<g><path style="opacity:1" fill="#c4a056" d="M 119.5,164.5 C 114.579,166.946 109.245,167.946 103.5,167.5C 105.5,166.833 107.5,166.167 109.5,165.5C 112.86,165.384 116.193,165.051 119.5,164.5 Z"/></g>
<g><path style="opacity:1" fill="#a08c63" d="M 64.5,163.5 C 77.0968,166.406 89.7635,167.072 102.5,165.5C 104.833,165.5 107.167,165.5 109.5,165.5C 107.5,166.167 105.5,166.833 103.5,167.5C 103.167,167.5 102.833,167.5 102.5,167.5C 91.0707,167.958 79.7374,167.292 68.5,165.5C 68.1667,165.5 67.8333,165.5 67.5,165.5C 66.5,164.833 65.5,164.167 64.5,163.5 Z"/></g>
<g><path style="opacity:1" fill="#4d4f56" d="M 111.5,163.5 C 114.167,163.5 116.833,163.5 119.5,163.5C 119.5,163.833 119.5,164.167 119.5,164.5C 116.193,165.051 112.86,165.384 109.5,165.5C 107.167,165.5 104.833,165.5 102.5,165.5C 102.5,165.167 102.5,164.833 102.5,164.5C 105.713,164.81 108.713,164.477 111.5,163.5 Z"/></g>
<g><path style="opacity:1" fill="#bb9a55" d="M 59.5,162.5 C 60.8333,162.5 62.1667,162.5 63.5,162.5C 63.5,163.167 63.8333,163.5 64.5,163.5C 65.5,164.167 66.5,164.833 67.5,165.5C 64.4221,165.38 61.7554,164.38 59.5,162.5 Z"/></g>
<g><path style="opacity:1" fill="#2c4889" d="M 128.5,158.5 C 128.5,159.167 128.5,159.833 128.5,160.5C 127.833,160.5 127.167,160.5 126.5,160.5C 121.351,161.342 116.351,162.342 111.5,163.5C 108.713,164.477 105.713,164.81 102.5,164.5C 94.8261,164.666 87.1594,164.5 79.5,164C 74.1312,163.883 69.1312,162.716 64.5,160.5C 74.3131,161.663 84.1465,162.663 94,163.5C 105.735,162.8 117.235,161.133 128.5,158.5 Z"/></g>
<g><path style="opacity:1" fill="#424a63" d="M 60.5,160.5 C 61.8333,160.5 63.1667,160.5 64.5,160.5C 69.1312,162.716 74.1312,163.883 79.5,164C 87.1594,164.5 94.8261,164.666 102.5,164.5C 102.5,164.833 102.5,165.167 102.5,165.5C 89.7635,167.072 77.0968,166.406 64.5,163.5C 63.8333,163.5 63.5,163.167 63.5,162.5C 62.5,161.833 61.5,161.167 60.5,160.5 Z"/></g>
<g><path style="opacity:1" fill="#8a7c58" d="M 126.5,160.5 C 127.167,160.5 127.833,160.5 128.5,160.5C 129.167,160.5 129.833,160.5 130.5,160.5C 130.5,160.833 130.5,161.167 130.5,161.5C 126.914,162.793 123.248,163.793 119.5,164.5C 119.5,164.167 119.5,163.833 119.5,163.5C 122.157,163.065 124.491,162.065 126.5,160.5 Z"/></g>
<g><path style="opacity:1" fill="#3b4969" d="M 126.5,160.5 C 124.491,162.065 122.157,163.065 119.5,163.5C 116.833,163.5 114.167,163.5 111.5,163.5C 116.351,162.342 121.351,161.342 126.5,160.5 Z"/></g>
<g><path style="opacity:1" fill="#b1965e" d="M 140.5,155.5 C 138.191,158.997 134.857,160.997 130.5,161.5C 130.5,161.167 130.5,160.833 130.5,160.5C 133.85,158.804 137.183,157.137 140.5,155.5 Z"/></g>
<g><path style="opacity:1" fill="#b69a58" d="M 47.5,156.5 C 51.5463,158.502 55.5463,160.502 59.5,162.5C 56.7835,162.322 54.1168,161.822 51.5,161C 49.3645,160.124 48.0312,158.624 47.5,156.5 Z"/></g>
<g><path style="opacity:1" fill="#414966" d="M 143.5,152.5 C 142.306,153.272 141.306,154.272 140.5,155.5C 137.183,157.137 133.85,158.804 130.5,160.5C 129.833,160.5 129.167,160.5 128.5,160.5C 128.5,159.833 128.5,159.167 128.5,158.5C 133.613,156.776 138.613,154.776 143.5,152.5 Z"/></g>
<g><path style="opacity:1" fill="#4b4e5f" d="M 30.5,136.5 C 37.5247,148.183 47.5247,156.183 60.5,160.5C 61.5,161.167 62.5,161.833 63.5,162.5C 62.1667,162.5 60.8333,162.5 59.5,162.5C 55.5463,160.502 51.5463,158.502 47.5,156.5C 45.5887,155.925 43.922,154.925 42.5,153.5C 40.1667,150.5 37.5,147.833 34.5,145.5C 34.573,143.973 33.9063,142.973 32.5,142.5C 31.3702,140.685 30.7036,138.685 30.5,136.5 Z"/></g>
<g><path style="opacity:1" fill="#b1965e" d="M 34.5,145.5 C 37.5,147.833 40.1667,150.5 42.5,153.5C 38.8333,151.833 36.1667,149.167 34.5,145.5 Z"/></g>
<g><path style="opacity:1" fill="#ad9359" d="M 156.5,140.5 C 153.107,147.559 147.774,152.559 140.5,155.5C 141.306,154.272 142.306,153.272 143.5,152.5C 147.833,150.167 151.167,146.833 153.5,142.5C 154.5,141.833 155.5,141.167 156.5,140.5 Z"/></g>
<g><path style="opacity:1" fill="#9b865c" d="M 32.5,142.5 C 33.9063,142.973 34.573,143.973 34.5,145.5C 33.0937,145.027 32.427,144.027 32.5,142.5 Z"/></g>
<g><path style="opacity:1" fill="#7c7056" d="M 156.5,138.5 C 156.5,139.167 156.5,139.833 156.5,140.5C 155.5,141.167 154.5,141.833 153.5,142.5C 153.738,140.596 154.738,139.262 156.5,138.5 Z"/></g>
<g><path style="opacity:1" fill="#937f5b" d="M 158.5,135.5 C 158.573,137.027 157.906,138.027 156.5,138.5C 156.427,136.973 157.094,135.973 158.5,135.5 Z"/></g>
<g><path style="opacity:1" fill="#474a5c" d="M 156.5,133.5 C 157.167,133.5 157.833,133.5 158.5,133.5C 158.5,134.167 158.5,134.833 158.5,135.5C 157.094,135.973 156.427,136.973 156.5,138.5C 154.738,139.262 153.738,140.596 153.5,142.5C 151.167,146.833 147.833,150.167 143.5,152.5C 148.969,147.015 153.303,140.682 156.5,133.5 Z"/></g>
<g><path style="opacity:1" fill="#ad935b" d="M 24.5,127.5 C 26.2519,130.672 28.2519,133.672 30.5,136.5C 30.7036,138.685 31.3702,140.685 32.5,142.5C 28.0134,138.53 25.3467,133.53 24.5,127.5 Z"/></g>
<g><path style="opacity:1" fill="#aa925d" d="M 163.5,121.5 C 163.482,126.848 161.815,131.514 158.5,135.5C 158.5,134.833 158.5,134.167 158.5,133.5C 158.328,132.508 158.662,131.842 159.5,131.5C 160.537,130.07 161.204,128.403 161.5,126.5C 161.5,126.167 161.5,125.833 161.5,125.5C 162.167,124.167 162.833,122.833 163.5,121.5 Z"/></g>
<g><path style="opacity:1" fill="#565258" d="M 161.5,126.5 C 161.204,128.403 160.537,130.07 159.5,131.5C 159.12,129.302 159.787,127.635 161.5,126.5 Z"/></g>
<g><path style="opacity:1" fill="#3d4968" d="M 24.5,123.5 C 25.1667,123.833 25.8333,124.167 26.5,124.5C 28.4248,128.274 29.7581,132.274 30.5,136.5C 28.2519,133.672 26.2519,130.672 24.5,127.5C 24.5,126.167 24.5,124.833 24.5,123.5 Z"/></g>
<g><path style="opacity:1" fill="#b49659" d="M 20.5,103.5 C 21.1667,107.5 21.8333,111.5 22.5,115.5C 22.1107,118.553 22.7773,121.22 24.5,123.5C 24.5,124.833 24.5,126.167 24.5,127.5C 21.3122,122.749 19.9788,117.416 20.5,111.5C 20.5,108.833 20.5,106.167 20.5,103.5 Z"/></g>
<g><path style="opacity:1" fill="#344677" d="M 24.5,67.5 C 21.8802,86.6601 22.5468,105.66 26.5,124.5C 25.8333,124.167 25.1667,123.833 24.5,123.5C 24.8893,120.447 24.2227,117.78 22.5,115.5C 21.8893,102.842 21.556,90.1757 21.5,77.5C 22.1347,74.0689 23.1347,70.7356 24.5,67.5 Z"/></g>
<g><path style="opacity:1" fill="#4a4d5a" d="M 164.5,111.5 C 164.296,114.518 163.963,117.518 163.5,120.5C 163.5,120.833 163.5,121.167 163.5,121.5C 162.833,122.833 162.167,124.167 161.5,125.5C 161.498,120.5 162.498,115.833 164.5,111.5 Z"/></g>
<g><path style="opacity:1" fill="#54525a" d="M 22.5,115.5 C 24.2227,117.78 24.8893,120.447 24.5,123.5C 22.7773,121.22 22.1107,118.553 22.5,115.5 Z"/></g>
<g><path style="opacity:1" fill="#b1975f" d="M 165.5,105.5 C 165.833,105.5 166.167,105.5 166.5,105.5C 166.5,107.5 166.5,109.5 166.5,111.5C 165.895,114.127 165.395,116.793 165,119.5C 164.617,120.056 164.117,120.389 163.5,120.5C 163.963,117.518 164.296,114.518 164.5,111.5C 165.461,109.735 165.795,107.735 165.5,105.5 Z"/></g>
<g><path style="opacity:1" fill="#4e4e5a" d="M 21.5,77.5 C 21.556,90.1757 21.8893,102.842 22.5,115.5C 21.8333,111.5 21.1667,107.5 20.5,103.5C 20.5,103.167 20.5,102.833 20.5,102.5C 20.1739,93.9832 20.5073,85.6499 21.5,77.5 Z"/></g>
<g><path style="opacity:1" fill="#5c5649" d="M 163.5,68.5 C 163.833,68.5 164.167,68.5 164.5,68.5C 166.215,80.7603 166.882,93.0936 166.5,105.5C 166.167,105.5 165.833,105.5 165.5,105.5C 165.844,93.0878 165.177,80.7544 163.5,68.5 Z"/></g>
<g><path style="opacity:1" fill="#304783" d="M 161.5,67.5 C 162.167,67.5 162.833,67.5 163.5,67.5C 163.5,67.8333 163.5,68.1667 163.5,68.5C 165.177,80.7544 165.844,93.0878 165.5,105.5C 165.795,107.735 165.461,109.735 164.5,111.5C 162.498,115.833 161.498,120.5 161.5,125.5C 161.5,125.833 161.5,126.167 161.5,126.5C 159.787,127.635 159.12,129.302 159.5,131.5C 158.662,131.842 158.328,132.508 158.5,133.5C 157.833,133.5 157.167,133.5 156.5,133.5C 157.175,129.643 158.342,125.977 160,122.5C 161.175,116.472 161.342,110.472 160.5,104.5C 161.04,103.252 161.707,102.085 162.5,101C 162.199,89.8815 161.866,78.7148 161.5,67.5 Z"/></g>
<g><path style="opacity:1" fill="#cea751" d="M 19.5,75.5 C 19.1734,84.6822 19.5067,93.6822 20.5,102.5C 20.5,102.833 20.5,103.167 20.5,103.5C 20.5,106.167 20.5,108.833 20.5,111.5C 19.6981,110.048 19.1981,108.382 19,106.5C 18.1748,95.9917 18.3415,85.6584 19.5,75.5 Z"/></g>
<g><path style="opacity:1" fill="#d1a74d" d="M 160.5,52.5 C 162.072,54.9438 163.572,57.6105 165,60.5C 165.213,66.634 166.213,72.634 168,78.5C 168.667,86.8333 168.667,95.1667 168,103.5C 167.817,106.365 167.317,109.031 166.5,111.5C 166.5,109.5 166.5,107.5 166.5,105.5C 166.882,93.0936 166.215,80.7603 164.5,68.5C 164.662,66.4727 164.495,64.4727 164,62.5C 163.617,61.944 163.117,61.6107 162.5,61.5C 162.167,60.1667 161.833,58.8333 161.5,57.5C 160.962,55.8828 160.629,54.2161 160.5,52.5 Z"/></g>
<g><path style="opacity:1" fill="#a8915e" d="M 21.5,69.5 C 21.5,72.1667 21.5,74.8333 21.5,77.5C 20.5073,85.6499 20.1739,93.9832 20.5,102.5C 19.5067,93.6822 19.1734,84.6822 19.5,75.5C 20.1667,73.5 20.8333,71.5 21.5,69.5 Z"/></g>
<g><path style="opacity:1" fill="#645c56" d="M 24.5,63.5 C 24.5,64.8333 24.5,66.1667 24.5,67.5C 23.1347,70.7356 22.1347,74.0689 21.5,77.5C 21.5,74.8333 21.5,72.1667 21.5,69.5C 22.5,67.5 23.5,65.5 24.5,63.5 Z"/></g>
<g><path style="opacity:1" fill="#bc9d5a" d="M 162.5,61.5 C 163.117,61.6107 163.617,61.944 164,62.5C 164.495,64.4727 164.662,66.4727 164.5,68.5C 164.167,68.5 163.833,68.5 163.5,68.5C 163.5,68.1667 163.5,67.8333 163.5,67.5C 163.483,65.4352 163.15,63.4352 162.5,61.5 Z"/></g>
<g><path style="opacity:1" fill="#5c5a5c" d="M 159.5,56.5 C 160.167,56.8333 160.833,57.1667 161.5,57.5C 161.833,58.8333 162.167,60.1667 162.5,61.5C 163.15,63.4352 163.483,65.4352 163.5,67.5C 162.833,67.5 162.167,67.5 161.5,67.5C 161.089,63.7785 160.422,60.1119 159.5,56.5 Z"/></g>
<g><path style="opacity:1" fill="#464c5d" d="M 33.5,45.5 C 33.5,46.1667 33.5,46.8333 33.5,47.5C 30.5105,52.7609 27.5105,58.0942 24.5,63.5C 25.2567,59.3172 26.59,55.3172 28.5,51.5C 29.9063,51.0269 30.573,50.0269 30.5,48.5C 30.8333,47.8333 31.1667,47.1667 31.5,46.5C 32.1667,46.1667 32.8333,45.8333 33.5,45.5 Z"/></g>
<g><path style="opacity:1" fill="#cfa34b" d="M 32.5,43.5 C 31.8902,44.391 31.5569,45.391 31.5,46.5C 31.1667,47.1667 30.8333,47.8333 30.5,48.5C 29.0937,48.9731 28.427,49.9731 28.5,51.5C 26.59,55.3172 25.2567,59.3172 24.5,63.5C 23.5,65.5 22.5,67.5 21.5,69.5C 21.7507,64.4119 22.584,59.4119 24,54.5C 26.8605,51.7703 28.6938,48.4369 29.5,44.5C 30.4168,43.8728 31.4168,43.5394 32.5,43.5 Z"/></g>
<g><path style="opacity:1" fill="#535359" d="M 153.5,45.5 C 156.808,48.4496 158.808,52.1163 159.5,56.5C 157.686,54.2359 155.853,51.9025 154,49.5C 153.51,48.2068 153.343,46.8734 153.5,45.5 Z"/></g>
<g><path style="opacity:1" fill="#8b7a54" d="M 30.5,48.5 C 30.573,50.0269 29.9063,51.0269 28.5,51.5C 28.427,49.9731 29.0937,48.9731 30.5,48.5 Z"/></g>
<g><path style="opacity:1" fill="#c0a057" d="M 152.5,42.5 C 156.097,44.9931 158.763,48.3264 160.5,52.5C 160.629,54.2161 160.962,55.8828 161.5,57.5C 160.833,57.1667 160.167,56.8333 159.5,56.5C 158.808,52.1163 156.808,48.4496 153.5,45.5C 153.443,44.391 153.11,43.391 152.5,42.5 Z"/></g>
<g><path style="opacity:1" fill="#464b68" d="M 135.5,29.5 C 136.167,29.5 136.833,29.5 137.5,29.5C 138.585,31.5869 140.251,32.9202 142.5,33.5C 142.973,34.9063 143.973,35.573 145.5,35.5C 147.5,38.1667 149.833,40.5 152.5,42.5C 153.11,43.391 153.443,44.391 153.5,45.5C 150.738,42.4135 147.405,40.0802 143.5,38.5C 140.8,35.4702 138.133,32.4702 135.5,29.5 Z"/></g>
<g><path style="opacity:1" fill="#344777" d="M 49.5,31.5 C 48.0582,32.8195 47.3915,34.4862 47.5,36.5C 46.1266,36.3433 44.7932,36.51 43.5,37C 39.9349,40.3955 36.6015,43.8955 33.5,47.5C 33.5,46.8333 33.5,46.1667 33.5,45.5C 33.3284,44.5084 33.6618,43.8417 34.5,43.5C 37.8333,40.8333 40.8333,37.8333 43.5,34.5C 45.5,33.5 47.5,32.5 49.5,31.5 Z"/></g>
<g><path style="opacity:1" fill="#5e5b53" d="M 43.5,34.5 C 40.8333,37.8333 37.8333,40.8333 34.5,43.5C 36.5,39.5 39.5,36.5 43.5,34.5 Z"/></g>
<g><path style="opacity:0.992" fill="#b89b59" d="M 46.5,30.5 C 45.5,31.8333 44.5,33.1667 43.5,34.5C 39.5,36.5 36.5,39.5 34.5,43.5C 33.6618,43.8417 33.3284,44.5084 33.5,45.5C 32.8333,45.8333 32.1667,46.1667 31.5,46.5C 31.5569,45.391 31.8902,44.391 32.5,43.5C 35.9479,37.7138 40.6146,33.3805 46.5,30.5 Z"/></g>
<g><path style="opacity:1" fill="#b0945f" d="M 145.5,35.5 C 148.833,36.8333 151.167,39.1667 152.5,42.5C 149.833,40.5 147.5,38.1667 145.5,35.5 Z"/></g>
<g><path style="opacity:1" fill="#958160" d="M 142.5,33.5 C 144.027,33.427 145.027,34.0937 145.5,35.5C 143.973,35.573 142.973,34.9063 142.5,33.5 Z"/></g>
<g><path style="opacity:1" fill="#948358" d="M 137.5,29.5 C 138.167,29.5 138.833,29.5 139.5,29.5C 140.5,30.8333 141.5,32.1667 142.5,33.5C 140.251,32.9202 138.585,31.5869 137.5,29.5 Z"/></g>
<g><path style="opacity:1" fill="#605b57" d="M 59.5,25.5 C 58.5,26.1667 57.5,26.8333 56.5,27.5C 54.3374,29.0828 52.0041,30.4161 49.5,31.5C 47.5,32.5 45.5,33.5 43.5,34.5C 44.5,33.1667 45.5,31.8333 46.5,30.5C 46.8333,30.5 47.1667,30.5 47.5,30.5C 51.323,28.2505 55.323,26.5838 59.5,25.5 Z"/></g>
<g><path style="opacity:1" fill="#716954" d="M 123.5,24.5 C 125.401,24.4332 127.234,24.7665 129,25.5C 131.36,26.7511 133.526,28.0844 135.5,29.5C 132.183,29.3357 129.183,28.3357 126.5,26.5C 125.5,25.8333 124.5,25.1667 123.5,24.5 Z"/></g>
<g><path style="opacity:1" fill="#2b488d" d="M 121.5,26.5 C 123.167,26.5 124.833,26.5 126.5,26.5C 129.183,28.3357 132.183,29.3357 135.5,29.5C 138.133,32.4702 140.8,35.4702 143.5,38.5C 147.405,40.0802 150.738,42.4135 153.5,45.5C 153.343,46.8734 153.51,48.2068 154,49.5C 155.853,51.9025 157.686,54.2359 159.5,56.5C 160.422,60.1119 161.089,63.7785 161.5,67.5C 160.85,67.1961 160.183,66.8627 159.5,66.5C 159.216,60.9343 157.05,56.2676 153,52.5C 152.342,49.7152 151.509,47.0486 150.5,44.5C 148.833,44.5 147.167,44.5 145.5,44.5C 145.5,43.1667 145.5,41.8333 145.5,40.5C 142.266,40.7954 139.266,40.1287 136.5,38.5C 140.345,36.1233 139.845,34.4566 135,33.5C 134.517,34.448 134.351,35.448 134.5,36.5C 131.612,36.7804 130.112,35.4471 130,32.5C 128.667,31.8333 127.333,31.1667 126,30.5C 124.612,31.5536 123.112,31.7203 121.5,31C 121.966,29.7012 121.966,28.2012 121.5,26.5 Z"/></g>
<g><path style="opacity:1" fill="#cda554" d="M 61.5,23.5 C 60.8333,24.1667 60.1667,24.8333 59.5,25.5C 55.323,26.5838 51.323,28.2505 47.5,30.5C 49.8428,28.1318 52.5095,25.9652 55.5,24C 57.4727,23.5045 59.4727,23.3379 61.5,23.5 Z"/></g>
<g><path style="opacity:1" fill="#454d63" d="M 59.5,25.5 C 60.8333,25.5 62.1667,25.5 63.5,25.5C 61.4855,26.9238 59.1522,27.5905 56.5,27.5C 57.5,26.8333 58.5,26.1667 59.5,25.5 Z"/></g>
<g><path style="opacity:1" fill="#254897" d="M 121.5,26.5 C 121.966,28.2012 121.966,29.7012 121.5,31C 123.112,31.7203 124.612,31.5536 126,30.5C 127.333,31.1667 128.667,31.8333 130,32.5C 130.112,35.4471 131.612,36.7804 134.5,36.5C 134.351,35.448 134.517,34.448 135,33.5C 139.845,34.4566 140.345,36.1233 136.5,38.5C 139.266,40.1287 142.266,40.7954 145.5,40.5C 145.5,41.8333 145.5,43.1667 145.5,44.5C 147.167,44.5 148.833,44.5 150.5,44.5C 151.509,47.0486 152.342,49.7152 153,52.5C 157.05,56.2676 159.216,60.9343 159.5,66.5C 160.183,66.8627 160.85,67.1961 161.5,67.5C 161.866,78.7148 162.199,89.8815 162.5,101C 161.707,102.085 161.04,103.252 160.5,104.5C 161.342,110.472 161.175,116.472 160,122.5C 158.342,125.977 157.175,129.643 156.5,133.5C 153.303,140.682 148.969,147.015 143.5,152.5C 138.613,154.776 133.613,156.776 128.5,158.5C 117.235,161.133 105.735,162.8 94,163.5C 84.1465,162.663 74.3131,161.663 64.5,160.5C 63.1667,160.5 61.8333,160.5 60.5,160.5C 47.5247,156.183 37.5247,148.183 30.5,136.5C 29.7581,132.274 28.4248,128.274 26.5,124.5C 22.5468,105.66 21.8802,86.6601 24.5,67.5C 24.5,66.1667 24.5,64.8333 24.5,63.5C 27.5105,58.0942 30.5105,52.7609 33.5,47.5C 36.6015,43.8955 39.9349,40.3955 43.5,37C 44.7932,36.51 46.1266,36.3433 47.5,36.5C 47.3915,34.4862 48.0582,32.8195 49.5,31.5C 52.0041,30.4161 54.3374,29.0828 56.5,27.5C 59.1522,27.5905 61.4855,26.9238 63.5,25.5C 79.7575,22.463 96.0909,21.963 112.5,24C 115.797,24.2037 118.797,25.037 121.5,26.5 Z"/></g>
<g><path style="opacity:1" fill="#4f4f59" d="M 109.5,123.5 C 111.076,129.572 109.743,135.072 105.5,140C 98.7646,143.64 91.7646,144.307 84.5,142C 81.3241,139.788 78.9908,136.955 77.5,133.5C 80.3523,136.784 83.6856,139.45 87.5,141.5C 91.7242,142.969 95.7242,142.636 99.5,140.5C 102.614,140.445 104.948,139.112 106.5,136.5C 107.455,134.254 108.122,131.921 108.5,129.5C 109.461,127.735 109.795,125.735 109.5,123.5 Z"/></g>
<g><path style="opacity:1" fill="#978664" d="M 106.5,136.5 C 104.948,139.112 102.614,140.445 99.5,140.5C 101.663,138.917 103.996,137.584 106.5,136.5 Z"/></g>
<g><path style="opacity:1" fill="#c5a254" d="M 103.5,123.5 C 107.908,123.062 109.575,125.062 108.5,129.5C 108.122,131.921 107.455,134.254 106.5,136.5C 103.996,137.584 101.663,138.917 99.5,140.5C 95.7242,142.636 91.7242,142.969 87.5,141.5C 87.1667,140.833 86.8333,140.167 86.5,139.5C 95.2745,141.909 102.108,139.242 107,131.5C 107.495,129.527 107.662,127.527 107.5,125.5C 104.344,125.529 102.678,127.196 102.5,130.5C 101.06,131.952 99.3936,132.952 97.5,133.5C 100.286,130.469 102.286,127.135 103.5,123.5 Z"/></g>
<g><path style="opacity:1" fill="#b79a5b" d="M 78.5,125.5 C 78.6785,128.216 79.1785,130.883 80,133.5C 82.0367,135.706 84.2034,137.706 86.5,139.5C 86.8333,140.167 87.1667,140.833 87.5,141.5C 83.6856,139.45 80.3523,136.784 77.5,133.5C 77.5,132.833 77.5,132.167 77.5,131.5C 77.2053,129.265 77.5386,127.265 78.5,125.5 Z"/></g>
<g><path style="opacity:1" fill="#dfa62f" d="M 84.5,128.5 C 85.2471,131.362 86.9138,133.362 89.5,134.5C 92.3854,134.806 95.0521,134.473 97.5,133.5C 99.3936,132.952 101.06,131.952 102.5,130.5C 102.678,127.196 104.344,125.529 107.5,125.5C 107.662,127.527 107.495,129.527 107,131.5C 102.108,139.242 95.2745,141.909 86.5,139.5C 84.2034,137.706 82.0367,135.706 80,133.5C 79.1785,130.883 78.6785,128.216 78.5,125.5C 79.6591,123.623 81.3258,123.123 83.5,124C 84.3802,125.356 84.7135,126.856 84.5,128.5 Z"/></g>
<g><path style="opacity:1" fill="#7f714c" d="M 87.5,131.5 C 88.609,131.557 89.609,131.89 90.5,132.5C 92.6074,133.468 94.9407,133.802 97.5,133.5C 95.0521,134.473 92.3854,134.806 89.5,134.5C 88.8333,133.5 88.1667,132.5 87.5,131.5 Z"/></g>
<g><path style="opacity:1" fill="#bd9d4f" d="M 84.5,128.5 C 85.1667,128.833 85.8333,129.167 86.5,129.5C 86.8333,129.5 87.1667,129.5 87.5,129.5C 87.5,130.167 87.5,130.833 87.5,131.5C 88.1667,132.5 88.8333,133.5 89.5,134.5C 86.9138,133.362 85.2471,131.362 84.5,128.5 Z"/></g>
<g><path style="opacity:1" fill="#2f4782" d="M 86.5,123.5 C 89.5177,124.855 90.851,127.188 90.5,130.5C 93.4175,130.635 96.0842,129.968 98.5,128.5C 98.4894,130.017 97.8228,131.184 96.5,132C 94.5273,132.495 92.5273,132.662 90.5,132.5C 89.609,131.89 88.609,131.557 87.5,131.5C 87.5,130.833 87.5,130.167 87.5,129.5C 87.1667,127.5 86.8333,125.5 86.5,123.5 Z"/></g>
<g><path style="opacity:1" fill="#4b4e5b" d="M 109.5,123.5 C 107.389,122.258 105.389,122.258 103.5,123.5C 102.286,127.135 100.286,130.469 97.5,133.5C 94.9407,133.802 92.6074,133.468 90.5,132.5C 92.5273,132.662 94.5273,132.495 96.5,132C 97.8228,131.184 98.4894,130.017 98.5,128.5C 99.6171,126.239 100.95,124.072 102.5,122C 103.667,121.833 104.833,121.667 106,121.5C 107.681,121.608 108.848,122.275 109.5,123.5 Z"/></g>
<g><path style="opacity:1" fill="#92856a" d="M 86.5,129.5 C 85.8333,129.167 85.1667,128.833 84.5,128.5C 84.7135,126.856 84.3802,125.356 83.5,124C 81.3258,123.123 79.6591,123.623 78.5,125.5C 77.5386,127.265 77.2053,129.265 77.5,131.5C 76.8333,131.5 76.5,131.167 76.5,130.5C 75.6478,123.512 78.4811,121.178 85,123.5C 85.5046,125.518 86.0046,127.518 86.5,129.5 Z"/></g>
<g><path style="opacity:1" fill="#414b69" d="M 86.5,123.5 C 86.8333,125.5 87.1667,127.5 87.5,129.5C 87.1667,129.5 86.8333,129.5 86.5,129.5C 86.0046,127.518 85.5046,125.518 85,123.5C 78.4811,121.178 75.6478,123.512 76.5,130.5C 74.0455,123.789 76.3788,120.622 83.5,121C 84.9423,121.377 85.9423,122.21 86.5,123.5 Z"/></g>
<g><path style="opacity:1" fill="#474e68" d="M 142.5,114.5 C 144.464,118.411 143.464,121.078 139.5,122.5C 139.833,121.833 140.167,121.167 140.5,120.5C 142.18,118.274 141.847,116.607 139.5,115.5C 139.167,115.5 138.833,115.5 138.5,115.5C 135.36,114.359 132.027,114.192 128.5,115C 125.62,118.197 126.287,120.364 130.5,121.5C 132.607,122.468 134.941,122.802 137.5,122.5C 134.36,123.641 131.027,123.808 127.5,123C 125.937,122.241 124.937,121.074 124.5,119.5C 123.637,115.838 124.97,113.672 128.5,113C 133.42,112.037 138.087,112.537 142.5,114.5 Z"/></g>
<g><path style="opacity:1" fill="#a79974" d="M 103.5,123.5 C 105.389,122.258 107.389,122.258 109.5,123.5C 109.795,125.735 109.461,127.735 108.5,129.5C 109.575,125.062 107.908,123.062 103.5,123.5 Z"/></g>
<g><path style="opacity:1" fill="#60575a" d="M 140.5,120.5 C 140.167,121.167 139.833,121.833 139.5,122.5C 138.833,122.5 138.167,122.5 137.5,122.5C 134.941,122.802 132.607,122.468 130.5,121.5C 133.902,121.658 137.236,121.324 140.5,120.5 Z"/></g>
<g><path style="opacity:1" fill="#bda26b" d="M 138.5,115.5 C 135.482,115.335 132.482,115.502 129.5,116C 127.98,119.659 129.313,121.159 133.5,120.5C 137.573,121.147 139.573,119.481 139.5,115.5C 141.847,116.607 142.18,118.274 140.5,120.5C 137.236,121.324 133.902,121.658 130.5,121.5C 126.287,120.364 125.62,118.197 128.5,115C 132.027,114.192 135.36,114.359 138.5,115.5 Z"/></g>
<g><path style="opacity:1" fill="#daa639" d="M 138.5,115.5 C 138.833,115.5 139.167,115.5 139.5,115.5C 139.573,119.481 137.573,121.147 133.5,120.5C 129.313,121.159 127.98,119.659 129.5,116C 132.482,115.502 135.482,115.335 138.5,115.5 Z"/></g>
<g><path style="opacity:1" fill="#ac976c" d="M 47.5,121.5 C 44.6213,120.197 43.9546,118.197 45.5,115.5C 50.477,112.937 55.477,112.937 60.5,115.5C 61.0352,118.238 60.0352,120.072 57.5,121C 54.1832,121.498 50.8499,121.665 47.5,121.5 Z"/></g>
<g><path style="opacity:1" fill="#4d5161" d="M 47.5,112.5 C 52.3266,112.221 56.9932,112.887 61.5,114.5C 62.0396,120.772 59.0396,123.772 52.5,123.5C 51.1667,123.333 49.8333,123.167 48.5,123C 47.944,122.617 47.6107,122.117 47.5,121.5C 50.8499,121.665 54.1832,121.498 57.5,121C 60.0352,120.072 61.0352,118.238 60.5,115.5C 55.477,112.937 50.477,112.937 45.5,115.5C 45.7822,114.222 46.4489,113.222 47.5,112.5 Z"/></g>
<g><path style="opacity:1" fill="#2f487e" d="M 52.5,107.5 C 56.4736,111.452 61.1402,112.452 66.5,110.5C 64.6732,111.691 63.0066,113.025 61.5,114.5C 56.9932,112.887 52.3266,112.221 47.5,112.5C 49.631,111.686 51.9644,111.186 54.5,111C 53.1772,110.184 52.5106,109.017 52.5,107.5 Z"/></g>
<g><path style="opacity:1" fill="#314881" d="M 47.5,112.5 C 46.4489,113.222 45.7822,114.222 45.5,115.5C 43.9546,118.197 44.6213,120.197 47.5,121.5C 47.6107,122.117 47.944,122.617 48.5,123C 49.8333,123.167 51.1667,123.333 52.5,123.5C 59.0396,123.772 62.0396,120.772 61.5,114.5C 63.7144,121.971 60.7144,125.305 52.5,124.5C 50.5,124.167 48.5,123.833 46.5,123.5C 45.6533,122.155 44.4866,121.155 43,120.5C 42.6362,117.262 41.9695,114.262 41,111.5C 41.3333,111.167 41.6667,110.833 42,110.5C 43.4443,112.155 45.2776,112.822 47.5,112.5 Z"/></g>
<g><path style="opacity:1" fill="#d9a737" d="M 47.5,115.5 C 50.5184,115.335 53.5184,115.502 56.5,116C 59.1667,117.333 59.1667,118.667 56.5,120C 53.5,120.667 50.5,120.667 47.5,120C 46.2721,118.51 46.2721,117.01 47.5,115.5 Z"/></g>
<g><path style="opacity:1" fill="#454c63" d="M 65.5,77.5 C 67.7525,77.9156 69.2525,79.249 70,81.5C 70.6667,89.5 70.6667,97.5 70,105.5C 68.3308,106.846 67.1642,108.513 66.5,110.5C 61.1402,112.452 56.4736,111.452 52.5,107.5C 52.5,106.833 52.5,106.167 52.5,105.5C 55.9932,109.294 60.3265,110.461 65.5,109C 66.056,108.617 66.3893,108.117 66.5,107.5C 66.8333,106.833 67.1667,106.167 67.5,105.5C 68.1174,105.389 68.6174,105.056 69,104.5C 69.8213,97.3209 69.6546,90.3209 68.5,83.5C 68.7709,81.6203 68.1042,80.287 66.5,79.5C 66.1667,78.8333 65.8333,78.1667 65.5,77.5 Z"/></g>
<g><path style="opacity:1" fill="#aa966c" d="M 53.5,82.5 C 53.1755,89.6866 53.5088,96.6866 54.5,103.5C 54.8333,104.167 55.1667,104.833 55.5,105.5C 55.9528,106.458 56.6195,107.292 57.5,108C 60.5547,108.634 63.5547,108.468 66.5,107.5C 66.3893,108.117 66.056,108.617 65.5,109C 60.3265,110.461 55.9932,109.294 52.5,105.5C 52.1746,97.6484 52.508,89.9818 53.5,82.5 Z"/></g>
<g><path style="opacity:1" fill="#3e4662" d="M 53.5,80.5 C 53.5,81.1667 53.5,81.8333 53.5,82.5C 52.508,89.9818 52.1746,97.6484 52.5,105.5C 51.8333,105.167 51.1667,104.833 50.5,104.5C 50.1692,96.8045 50.5025,89.1378 51.5,81.5C 52.1835,81.1373 52.8501,80.8039 53.5,80.5 Z"/></g>
<g><path style="opacity:1" fill="#766e5e" d="M 132.5,79.5 C 133.167,79.8333 133.833,80.1667 134.5,80.5C 134.5,81.1667 134.5,81.8333 134.5,82.5C 134.825,90.0191 134.492,97.3524 133.5,104.5C 133.773,96.1122 133.44,87.7788 132.5,79.5 Z"/></g>
<g><path style="opacity:1" fill="#2d4888" d="M 127.5,75.5 C 122.604,74.6792 118.938,76.3459 116.5,80.5C 115.212,88.9808 115.212,97.3142 116.5,105.5C 116.973,106.906 117.973,107.573 119.5,107.5C 119.953,108.458 120.619,109.292 121.5,110C 124.039,110.796 126.372,110.629 128.5,109.5C 130.933,109.727 132.599,108.727 133.5,106.5C 134.117,106.389 134.617,106.056 135,105.5C 135.822,97.6554 135.656,89.9887 134.5,82.5C 134.5,81.8333 134.5,81.1667 134.5,80.5C 135.88,80.9623 136.547,81.9623 136.5,83.5C 137.802,92.0928 137.469,100.593 135.5,109C 138.107,110.572 140.441,112.406 142.5,114.5C 138.087,112.537 133.42,112.037 128.5,113C 124.97,113.672 123.637,115.838 124.5,119.5C 123.532,117.393 123.198,115.059 123.5,112.5C 120.904,110.941 118.237,109.274 115.5,107.5C 115.207,103.807 113.873,100.64 111.5,98C 112.448,97.5172 113.448,97.3505 114.5,97.5C 114.207,91.1067 114.54,84.7734 115.5,78.5C 116.685,77.147 118.019,75.9803 119.5,75C 119.167,74.6667 118.833,74.3333 118.5,74C 121.817,73.2191 124.817,73.7191 127.5,75.5 Z"/></g>
<g><path style="opacity:1" fill="#65625c" d="M 119.5,107.5 C 122.215,109.123 125.215,109.79 128.5,109.5C 126.372,110.629 124.039,110.796 121.5,110C 120.619,109.292 119.953,108.458 119.5,107.5 Z"/></g>
<g><path style="opacity:1" fill="#666460" d="M 132.5,104.5 C 132.833,104.5 133.167,104.5 133.5,104.5C 133.5,105.167 133.5,105.833 133.5,106.5C 132.599,108.727 130.933,109.727 128.5,109.5C 130.555,108.441 131.889,106.775 132.5,104.5 Z"/></g>
<g><path style="opacity:1" fill="#b29c66" d="M 118.5,82.5 C 118.269,90.2089 118.602,97.8756 119.5,105.5C 118.778,105.082 118.278,104.416 118,103.5C 117.5,96.8417 117.334,90.175 117.5,83.5C 117.5,82.8333 117.833,82.5 118.5,82.5 Z"/></g>
<g><path style="opacity:1" fill="#454953" d="M 117.5,83.5 C 117.334,90.175 117.5,96.8417 118,103.5C 118.278,104.416 118.778,105.082 119.5,105.5C 119.5,106.167 119.5,106.833 119.5,107.5C 117.973,107.573 116.973,106.906 116.5,105.5C 116.175,97.9809 116.508,90.6476 117.5,83.5 Z"/></g>
<g><path style="opacity:1" fill="#cea74e" d="M 122.5,80.5 C 121.878,81.6266 121.045,82.6266 120,83.5C 119.116,90.5817 119.449,97.5817 121,104.5C 122.161,106.665 123.994,107.665 126.5,107.5C 128.996,107.303 130.996,106.303 132.5,104.5C 131.889,106.775 130.555,108.441 128.5,109.5C 125.215,109.79 122.215,109.123 119.5,107.5C 119.5,106.833 119.5,106.167 119.5,105.5C 118.602,97.8756 118.269,90.2089 118.5,82.5C 119.605,81.3995 120.938,80.7329 122.5,80.5 Z"/></g>
<g><path style="opacity:1" fill="#e4a620" d="M 55.5,105.5 C 55.1667,104.833 54.8333,104.167 54.5,103.5C 54.3337,96.825 54.5004,90.1583 55,83.5C 57.8227,80.4288 61.156,79.7621 65,81.5C 66.6011,89.3953 66.9345,97.3953 66,105.5C 62.5343,106.717 59.0343,106.717 55.5,105.5 Z"/></g>
<g><path style="opacity:1" fill="#c1a562" d="M 66.5,79.5 C 68.1042,80.287 68.7709,81.6203 68.5,83.5C 68.824,90.3543 68.4907,97.021 67.5,103.5C 67.7701,95.445 67.4368,87.445 66.5,79.5 Z"/></g>
<g><path style="opacity:1" fill="#3d475e" d="M 134.5,82.5 C 135.656,89.9887 135.822,97.6554 135,105.5C 134.617,106.056 134.117,106.389 133.5,106.5C 133.5,105.833 133.5,105.167 133.5,104.5C 134.492,97.3524 134.825,90.0191 134.5,82.5 Z"/></g>
<g><path style="opacity:1" fill="#786e52" d="M 68.5,83.5 C 69.6546,90.3209 69.8213,97.3209 69,104.5C 68.6174,105.056 68.1174,105.389 67.5,105.5C 67.5,104.833 67.5,104.167 67.5,103.5C 68.4907,97.021 68.824,90.3543 68.5,83.5 Z"/></g>
<g><path style="opacity:1" fill="#e3a622" d="M 132.5,104.5 C 130.996,106.303 128.996,107.303 126.5,107.5C 123.994,107.665 122.161,106.665 121,104.5C 119.449,97.5817 119.116,90.5817 120,83.5C 121.045,82.6266 121.878,81.6266 122.5,80.5C 126.581,78.681 129.748,79.681 132,83.5C 132.5,90.4921 132.666,97.4921 132.5,104.5 Z"/></g>
<g><path style="opacity:1" fill="#d2a748" d="M 66.5,79.5 C 67.4368,87.445 67.7701,95.445 67.5,103.5C 67.5,104.167 67.5,104.833 67.5,105.5C 67.1667,106.167 66.8333,106.833 66.5,107.5C 63.5547,108.468 60.5547,108.634 57.5,108C 56.6195,107.292 55.9528,106.458 55.5,105.5C 59.0343,106.717 62.5343,106.717 66,105.5C 66.9345,97.3953 66.6011,89.3953 65,81.5C 61.156,79.7621 57.8227,80.4288 55,83.5C 54.5004,90.1583 54.3337,96.825 54.5,103.5C 53.5088,96.6866 53.1755,89.6866 53.5,82.5C 57.039,78.4641 61.3724,77.4641 66.5,79.5 Z"/></g>
<g><path style="opacity:1" fill="#bc9f5e" d="M 128.5,77.5 C 128.833,77.5 129.167,77.5 129.5,77.5C 129.973,78.9063 130.973,79.573 132.5,79.5C 133.44,87.7788 133.773,96.1122 133.5,104.5C 133.167,104.5 132.833,104.5 132.5,104.5C 132.666,97.4921 132.5,90.4921 132,83.5C 129.748,79.681 126.581,78.681 122.5,80.5C 120.938,80.7329 119.605,81.3995 118.5,82.5C 118.738,80.5956 119.738,79.2623 121.5,78.5C 123.764,77.7814 126.097,77.448 128.5,77.5 Z"/></g>
<g><path style="opacity:1" fill="#2a488b" d="M 55.5,76.5 C 54.3995,77.6049 53.7329,78.9382 53.5,80.5C 52.8501,80.8039 52.1835,81.1373 51.5,81.5C 50.5025,89.1378 50.1692,96.8045 50.5,104.5C 49.6712,97.3448 49.1712,90.0115 49,82.5C 46.094,80.5964 45.7606,78.2631 48,75.5C 48.3468,77.1802 49.3468,78.1802 51,78.5C 52.4064,77.5862 53.9064,76.9195 55.5,76.5 Z"/></g>
<g><path style="opacity:1" fill="#9a8967" d="M 63.5,77.5 C 64.1667,77.5 64.8333,77.5 65.5,77.5C 65.8333,78.1667 66.1667,78.8333 66.5,79.5C 61.3724,77.4641 57.039,78.4641 53.5,82.5C 53.5,81.8333 53.5,81.1667 53.5,80.5C 56.2336,77.8574 59.5669,76.8574 63.5,77.5 Z"/></g>
<g><path style="opacity:1" fill="#4e4f5d" d="M 55.5,76.5 C 58.3854,76.1936 61.0521,76.5269 63.5,77.5C 59.5669,76.8574 56.2336,77.8574 53.5,80.5C 53.7329,78.9382 54.3995,77.6049 55.5,76.5 Z"/></g>
<g><path style="opacity:1" fill="#374776" d="M 127.5,75.5 C 131.237,75.2407 133.57,76.9074 134.5,80.5C 133.833,80.1667 133.167,79.8333 132.5,79.5C 132.027,78.0937 131.027,77.427 129.5,77.5C 129.167,77.5 128.833,77.5 128.5,77.5C 127.726,76.8529 126.726,76.5195 125.5,76.5C 123.645,76.3402 122.312,77.0069 121.5,78.5C 119.738,79.2623 118.738,80.5956 118.5,82.5C 117.833,82.5 117.5,82.8333 117.5,83.5C 116.508,90.6476 116.175,97.9809 116.5,105.5C 115.212,97.3142 115.212,88.9808 116.5,80.5C 118.938,76.3459 122.604,74.6792 127.5,75.5 Z"/></g>
<g><path style="opacity:1" fill="#54585d" d="M 129.5,77.5 C 131.027,77.427 132.027,78.0937 132.5,79.5C 130.973,79.573 129.973,78.9063 129.5,77.5 Z"/></g>
<g><path style="opacity:1" fill="#605b5c" d="M 128.5,77.5 C 126.097,77.448 123.764,77.7814 121.5,78.5C 122.312,77.0069 123.645,76.3402 125.5,76.5C 126.726,76.5195 127.726,76.8529 128.5,77.5 Z"/></g>
<g><path style="opacity:1" fill="#867757" d="M 67.5,21.5 C 68.8333,21.5 70.1667,21.5 71.5,21.5C 72.8333,21.5 74.1667,21.5 75.5,21.5C 71.4564,22.7421 67.4564,24.0754 63.5,25.5C 62.1667,25.5 60.8333,25.5 59.5,25.5C 60.1667,24.8333 60.8333,24.1667 61.5,23.5C 63.7857,23.405 65.7857,22.7384 67.5,21.5 Z"/></g>
<g><path style="opacity:1" fill="#474d65" d="M 123.5,24.5 C 124.5,25.1667 125.5,25.8333 126.5,26.5C 124.833,26.5 123.167,26.5 121.5,26.5C 118.797,25.037 115.797,24.2037 112.5,24C 96.0909,21.963 79.7575,22.463 63.5,25.5C 67.4564,24.0754 71.4564,22.7421 75.5,21.5C 91.5554,19.5721 107.555,20.5721 123.5,24.5 Z"/></g>
<g><path style="opacity:1" fill="#b89b5d" d="M 123.5,24.5 C 107.555,20.5721 91.5554,19.5721 75.5,21.5C 74.1667,21.5 72.8333,21.5 71.5,21.5C 71.9175,20.7784 72.5842,20.2784 73.5,20C 86.1667,19.3333 98.8333,19.3333 111.5,20C 115.915,20.7661 119.915,22.2661 123.5,24.5 Z"/></g>
<g><path style="opacity:1" fill="#9f8e5c" d="M 133.5,167.5 C 133.5,167.833 133.5,168.167 133.5,168.5C 133.158,169.338 132.492,169.672 131.5,169.5C 130.5,169.5 129.5,169.5 128.5,169.5C 129.78,168.069 131.447,167.402 133.5,167.5 Z"/></g>
<g><path style="opacity:1" fill="#786b59" d="M 126.5,169.5 C 127.167,169.5 127.833,169.5 128.5,169.5C 129.5,169.5 130.5,169.5 131.5,169.5C 127.206,171.816 122.54,173.15 117.5,173.5C 116.167,173.5 114.833,173.5 113.5,173.5C 118.097,172.897 122.43,171.563 126.5,169.5 Z"/></g>
<g><path style="opacity:0.871" fill="#50524c" d="M 57.5,170.5 C 59.8984,170.259 61.8984,170.926 63.5,172.5C 61.1016,172.741 59.1016,172.074 57.5,170.5 Z"/></g>
<g><path style="opacity:1" fill="#c2a157" d="M 126.5,169.5 C 122.43,171.563 118.097,172.897 113.5,173.5C 110.14,173.616 106.807,173.949 103.5,174.5C 95.6484,174.825 87.9818,174.492 80.5,173.5C 88.1739,173.666 95.8406,173.5 103.5,173C 111.237,171.978 118.903,170.811 126.5,169.5 Z"/></g>
<g><path style="opacity:0.914" fill="#50535c" d="M 63.5,172.5 C 66.5448,172.508 69.5448,172.841 72.5,173.5C 72.5,173.833 72.5,174.167 72.5,174.5C 69.2186,174.58 66.2186,173.913 63.5,172.5 Z"/></g>
<g><path style="opacity:0.996" fill="#6f6654" d="M 72.5,173.5 C 74.1667,173.5 75.8333,173.5 77.5,173.5C 78.5,173.5 79.5,173.5 80.5,173.5C 87.9818,174.492 95.6484,174.825 103.5,174.5C 103.5,174.833 103.5,175.167 103.5,175.5C 92.9865,175.828 82.6532,175.494 72.5,174.5C 72.5,174.167 72.5,173.833 72.5,173.5 Z"/></g>
<g><path style="opacity:0.28" fill="#57545a" d="M 113.5,173.5 C 114.833,173.5 116.167,173.5 117.5,173.5C 113.081,174.972 108.414,175.638 103.5,175.5C 103.5,175.167 103.5,174.833 103.5,174.5C 106.807,173.949 110.14,173.616 113.5,173.5 Z"/></g>
</svg>
